PathFileType	4	(X/Y/Z)	27_2_34_p0_0-363.trc
DataRate	CameraRate	NumFrames	NumMarkers	Units	OrigDataRate	OrigDataStartFrame	OrigNumFrames
59.0	59.0	6	27	m	59.0	91	364
Frame#	Time	RHip			RKnee			RAnkle			RBigToe			RSmallToe			RHeel			LHip			LKnee			LAnkle			LBigToe			LSmallToe			LHeel			Neck			Head			Nose			RShoulder			RElbow			RWrist			RThumb			RIndex			RPinky			LShoulder			LElbow			LWrist			LThumb			LIndex			LPinky			
		X1	Y1	Z1	X2	Y2	Z2	X3	Y3	Z3	X4	Y4	Z4	X5	Y5	Z5	X6	Y6	Z6	X7	Y7	Z7	X8	Y8	Z8	X9	Y9	Z9	X10	Y10	Z10	X11	Y11	Z11	X12	Y12	Z12	X13	Y13	Z13	X14	Y14	Z14	X15	Y15	Z15	X16	Y16	Z16	X17	Y17	Z17	X18	Y18	Z18	X19	Y19	Z19	X20	Y20	Z20	X21	Y21	Z21	X22	Y22	Z22	X23	Y23	Z23	X24	Y24	Z24	X25	Y25	Z25	X26	Y26	Z26	X27	Y27	Z27	
91	1.5423728813559323	0.164368097753564	0.5907683497394961	0.8433546615359098	0.12800078812699137	0.6416373870827012	1.3404991549469174	0.18855159422039405	0.7770584985690321	1.811109123977047	0.12752104691986813	0.5908512807171098	1.844983310536894	0.18836238822695925	0.5846922982154925	1.8257520722034961	0.18149574716771444	0.8837448454308937	1.896672618086489	-0.0663540414729006	0.6660077164273892	0.8553213278755932	-0.037851099110235376	0.7131897579521989	1.3579491611498267	-0.03603234279955278	0.778494294556073	1.8224354497735191	-0.04527354885025912	0.5667127380750444	1.8207670685418897	-0.09264432620601819	0.6352405385906468	1.8418894755139685	-0.008399569777993218	0.8370299024670828	1.8818529378064501	0.007957481246944724	0.5529953640692322	0.2945952656191815	-0.014432607716727455	0.4734071257525647	0.06305878793460361	-0.038695490593699214	0.4356756858708328	0.19402698397455867	0.16537648856978918	0.5130343750599443	0.3930493930283418	0.25363321351502066	0.5500778814831055	0.6607695453706577	0.20629012234956393	0.4549117357345699	0.8892282539855474	0.10721550242136008	0.35718843250475896	0.9620315294308613	0.13352370790901288	0.3647753226936336	0.9841555065372031	0.17117706700760663	0.39660686533911704	0.9909700532042174	-0.13090153941199906	0.634841185343644	0.40503196243954526	-0.1873328678305419	0.6836265064393755	0.6733589197638516	-0.13085349041793828	0.5591985751854548	0.8888850276304546	-0.07075298607218439	0.4749822256470238	0.9614462960080019	-0.08825025433219282	0.46358638270577407	0.9878214824870294	-0.11867967279420556	0.43692508408701497	0.9829076928325136
92	1.5593220338983051	0.1622468501458635	0.6053187195967653	0.8460755340151737	0.12796075271578453	0.6413686064761092	1.3402968331540652	0.18442641856160452	0.775282190305853	1.8148852506848447	0.12749391281060782	0.590853598263872	1.844780204258308	0.18829459036148824	0.5845115932916419	1.82570817146078	0.17847590490116563	0.8821311331149138	1.899534393912643	-0.07058314149218033	0.6789645743718595	0.8536416260241292	-0.03688736000084958	0.7151133978343375	1.3632482799650878	-0.03605456333078549	0.7786768577132706	1.8225107371863556	-0.04400448493408925	0.5687228895493633	1.8267091923307661	-0.09687682745246093	0.6351329309442459	1.8421894930245502	-0.008483691637072327	0.8367482709444629	1.881731476833815	0.007949637306889093	0.5530546832871205	0.29464406098555096	-0.018389440895989293	0.4724361454558346	0.0633427072334159	-0.03879298300117337	0.435696143198874	0.1940624000602399	0.1653613218235096	0.5129478669395892	0.39305277342492784	0.25389124965004045	0.5499611455699176	0.6572955434906312	0.21104901800684314	0.45458691658688205	0.8848126136469323	0.1088645968890622	0.34334557612835176	0.9555466647835282	0.13408567807396135	0.36418611065194745	0.9839269688331074	0.17319309587946008	0.3840309511604294	0.9873046166970636	-0.1344449684754826	0.6476983822875129	0.4087703763003186	-0.18357818746523238	0.697315327127517	0.6755118585202142	-0.1352069017470451	0.5721230414550896	0.8922284814733605	-0.08256632310557956	0.4645441948679273	0.9659317370664717	-0.08797279759798204	0.4645370960116902	0.9917268907021046	-0.1257024516080819	0.4469350411757709	0.993077933781805
93	1.576271186440678	0.16359834811556054	0.589789963940247	0.8394468542357916	0.123514171562338	0.6403059827881128	1.33981540436268	0.18847133385343467	0.7763024607289216	1.8108361892742897	0.12745681910964676	0.590958463015592	1.8439420239802036	0.1882397034786256	0.584276937100085	1.8250704641115643	0.17549150820501072	0.8487528675823364	1.8835751638735652	-0.06782899427749492	0.6631095894053146	0.8464518606684439	-0.036773706163517335	0.7150843026790223	1.363052430942913	-0.03590771132213077	0.7786428414652019	1.8222721522098868	-0.0436513479235408	0.5699175690728646	1.8266676585354904	-0.09559246872089788	0.6352181524349656	1.8379594762773015	-0.0059996366820106	0.8390301583541253	1.8769058830465184	0.007951770119996232	0.552942791908432	0.29475709865155525	-0.018592800572642232	0.4724692045697261	0.06022866126308637	-0.0427812703313899	0.43453695472774234	0.19429536817139637	0.16538943414372034	0.5128660934866791	0.3930729419600819	0.2538860527643234	0.5497464500497671	0.6570950651180515	0.2108678734098356	0.46308991398396104	0.8827108909254765	0.11784470375034048	0.3542592089345009	0.957825126207153	0.13964777283547394	0.3526510029706212	0.97750907411677	0.17349036563563738	0.3842403010103871	0.9867523847827131	-0.1344863953339336	0.6476496468876137	0.40874364572662375	-0.17979234776665587	0.6995421674894872	0.6716480584771463	-0.13942535806907408	0.5709261571887573	0.8921860438516551	-0.0859137587635875	0.4754570152001804	0.9719112681600669	-0.09994985644736713	0.4410071483313074	0.986317907750735	-0.13351903029609583	0.4583004886122305	0.9962472161928145
94	1.5932203389830508	0.1647947390068437	0.5905357117922133	0.8471063167542667	0.12358316868425158	0.6402917160222786	1.339587322455501	0.18840878785457527	0.7763798574007099	1.810898955818744	0.12745987772312922	0.590718378324056	1.8443024157517656	0.1882278218526014	0.5842133346501369	1.825441292170269	0.17545777228971685	0.8488475257021485	1.8835406279344988	-0.06712786811768412	0.6645882396842274	0.8508281957514351	-0.04229682395972534	0.6997413491355772	1.3533570265448678	-0.035926868433650026	0.7789661527879798	1.8223335023894864	-0.045172489090791086	0.567206981517163	1.82073471618969	-0.09133009697297116	0.633874244603928	1.8409465872315425	-0.006263471840342439	0.8386504254986081	1.8767819220146225	0.007967233341779338	0.5528327517749826	0.29485047894580946	-0.018351669948256787	0.47244081149674505	0.06324795266333959	-0.03888171213905239	0.43565884283839984	0.19404796437528998	0.1653832102652397	0.5128910396218832	0.3931016537097524	0.2539980326931947	0.5498851818237702	0.6571122524293928	0.2170671809924429	0.45070025009252207	0.8797059647190248	0.12459253517498436	0.34323339659509833	0.9546783800787285	0.14336498931466715	0.3532216004309816	0.974511351350136	0.17360003442634148	0.3837980721303797	0.9868083895760577	-0.1340374895521005	0.6488595265411283	0.4126215774506285	-0.17588937344913766	0.7022654783253234	0.6682789365150021	-0.1434148748637627	0.5703170117687634	0.8920026812279858	-0.08684788948242007	0.4750500567006794	0.9677045945424807	-0.10520221753918645	0.42782669608372925	0.9800630513913053	-0.1429928983518965	0.4840174321570202	1.0019887384156254
95	1.6101694915254237	0.16395343846127416	0.58895270774339	0.8431515948939866	0.12359590334984422	0.640014038280713	1.3393397740514696	0.17951222170372005	0.7592361796135626	1.802597526132883	0.12555735296204248	0.5766852761156567	1.83778133256039	0.18255440866220643	0.5707165255939746	1.8193136875971756	0.1765947060487255	0.8466147617553534	1.8807755230840957	-0.06705053647667958	0.6641005147861353	0.8505113005619537	-0.04273743499055587	0.6842378726870886	1.3478076978109588	-0.035964592350288135	0.7790453060422934	1.822359389837169	-0.045358000455529394	0.5669249445050558	1.8208245272568984	-0.09677872774944281	0.6353537237175528	1.8420513166075807	-0.0067346198084852656	0.8402096131592569	1.8736431859306022	0.007994848081797429	0.5528860328523438	0.2948557284457487	-0.018387907855424337	0.4724126233060625	0.06324534781130163	-0.04287514847944678	0.4344633043245714	0.19431771649781676	0.16533824202448283	0.5127333912198379	0.393100604432229	0.2540195227534402	0.5498684312878143	0.6570002510686377	0.21745492505118488	0.45008754132704587	0.8755895094092728	0.13317155070014539	0.35236995077051253	0.949473198816379	0.1473624715958022	0.3539086165718572	0.967265380623077	0.1771469562968262	0.39215425637201523	0.981956010900378	-0.1302614195742561	0.6622005294432253	0.41288147082143367	-0.17164659239072444	0.7160805772826527	0.6698900339303748	-0.1474637906846054	0.5694110736109214	0.8919172402206416	-0.08713888984012981	0.47623039008120016	0.9643235662245748	-0.11032921936038548	0.4152274113824854	0.9807460148655027	-0.15742955401013992	0.49547541127517697	1.0026117423110006
96	1.6271186440677967	0.15943866528719558	0.577427656569405	0.8411433475335519	0.12270552587306356	0.6379264559840641	1.3344806224335162	0.18953882651400747	0.7741766136828117	1.809591719978716	0.12641508564191256	0.577971823000718	1.8366256278857445	0.1827204645390802	0.5710676787148214	1.8187020483953886	0.18209329209776767	0.8641846818850308	1.8911415089987675	-0.06416278739797902	0.647730324631342	0.8435566288789043	-0.037080706739449375	0.7119617552993486	1.3611347613800473	-0.03544360187305417	0.7778353287121604	1.8260995811443854	-0.044738149518795935	0.5678363963635922	1.8205581628479564	-0.09046867178099624	0.6346339646748441	1.8412605953602303	-0.010078612512880811	0.8409008969716179	1.8734857948740333	0.008012718293967956	0.5528788408939823	0.29486236997466536	-0.022541541963233044	0.46144093231486244	0.06431290050878163	-0.04292822015836928	0.43456202149297385	0.19431903125262553	0.16774933601937037	0.49983261147309804	0.39569446179879875	0.25409915294695246	0.5500593503840315	0.656934130552699	0.22164072560738624	0.4502996670276009	0.8681876973541213	0.13110139076926264	0.3298615414875485	0.9438144608681415	0.1482638329159623	0.3542029461640692	0.9704239109838922	0.17780721399313024	0.3937317509634655	0.9816079251399821	-0.12675377573513438	0.6496499075065868	0.41233219948867667	-0.16629087724922673	0.7308069570053493	0.6749527386501063	-0.15515798901033756	0.5811042710263986	0.8982851607154153	-0.09320444572041231	0.4874393149001997	0.9856243542393159	-0.1222728759299297	0.42381817736167765	0.9834882531509768	-0.1640213793326549	0.5211419237982964	1.0136331532924905
